<?xml version="1.0" encoding="utf-8"?>
<!-- Generator: Adobe Illustrator 17.0.0, SVG Export Plug-In . SVG Version: 6.00 Build 0)  -->
<!DOCTYPE svg PUBLIC "-//W3C//DTD SVG 1.0//EN" "http://www.w3.org/TR/2001/REC-SVG-20010904/DTD/svg10.dtd">
<svg version="1.0" id="Layer_1" xmlns="http://www.w3.org/2000/svg" xmlns:xlink="http://www.w3.org/1999/xlink" x="0px" y="0px"
	 width="25px" height="25px" viewBox="0 0 25 25" style="enable-background:new 0 0 25 25;" xml:space="preserve">
<path style="fill:#FFFFFF;" d="M13.9,0.1C7.1,0.1,1.5,5.7,1.5,12.5s5.6,12.4,12.4,12.4h1.6V0.1H13.9L13.9,0.1z M9.9,17.6
	c0.8,0.2,1.6,0.3,2.4,0.3v2.3C11.3,19.5,10.5,18.6,9.9,17.6z M8.8,15.2c-0.2-0.9-0.4-1.8-0.4-2.7s0.1-1.8,0.4-2.7
	c1-0.3,2.2-0.5,3.5-0.7v6.7C11,15.7,9.8,15.5,8.8,15.2z M5,12.5c0-0.5,0.5-1.1,1.5-1.7c-0.1,0.6-0.1,1.1-0.1,1.7
	c0,0.6,0,1.1,0.1,1.7C5.5,13.6,5,13,5,12.5z M9.9,7.4c0.6-1,1.4-1.9,2.4-2.6V7C11.5,7.1,10.7,7.2,9.9,7.4z M9.5,4.4
	c-1,1.1-1.8,2.3-2.3,3.7C6.5,8.4,5.9,8.6,5.4,8.9C6.2,7,7.7,5.4,9.5,4.4z M5.4,16.1c0.5,0.3,1.1,0.6,1.7,0.8
	c0.5,1.4,1.3,2.6,2.3,3.7C7.7,19.6,6.2,18,5.4,16.1z M23.5,17.2c0,2.6-1.1,4.3-3.3,4.7v1.4h-2.5V22c-0.4-0.1-0.8-0.2-1.1-0.4v-5.7
	h0.7v1.5c0,1.4,0.6,1.9,1.6,1.9s1.6-0.5,1.6-1.9c0-2.4-2.1-3.4-3.8-5v-9c0.3-0.1,0.6-0.3,1-0.4V1.6h2.5V3c2.2,0.4,3.3,2.1,3.3,4.7
	v0.6h-2.9V7.6c0-1.4-0.6-1.9-1.5-1.9c-1,0-1.5,0.5-1.5,1.9C17.6,11.5,23.5,11.7,23.5,17.2z"/>
</svg>
