<?xml version="1.0" encoding="utf-8"?>
<!-- Generator: Adobe Illustrator 17.0.0, SVG Export Plug-In . SVG Version: 6.00 Build 0)  -->
<!DOCTYPE svg PUBLIC "-//W3C//DTD SVG 1.0//EN" "http://www.w3.org/TR/2001/REC-SVG-20010904/DTD/svg10.dtd">
<svg version="1.0" id="Layer_1" xmlns="http://www.w3.org/2000/svg" xmlns:xlink="http://www.w3.org/1999/xlink" x="0px" y="0px"
	 width="25px" height="25px" viewBox="0 0 25 25" style="enable-background:new 0 0 25 25;" xml:space="preserve">
<path style="fill:#FFFFFF;" d="M10.6,3.7c0.6-0.3,1.3-0.4,2-0.4c2.8,0,5,2.2,5,5c0,2.6-2,4.7-4.6,5c0-0.1,0-0.2,0.1-0.2
	c0.3-1,1.5-1.6,2.2-2.2c1.8-1.6,1.9-4.6-0.6-5.6c-1-0.4-2.1-0.5-3.1-0.8C11.2,4.2,10.9,4,10.6,3.7z M7.6,8.3c0,2.4,1.7,4.4,4,4.9
	c0.2-0.9,0.6-1.7,1.3-2.3s1.9-1.3,2.1-2.3c0.3-1-0.1-1.8-1.1-2.1c-1.3-0.4-3.7-0.6-4.6-2C8.3,5.4,7.6,6.8,7.6,8.3z M9.5,1.3L7.2,1.7
	c-0.1,0-0.3,0.1-0.4,0.1C6.3,2,5.9,2.5,5.8,3.1L5.5,5.5l-1.4,2c-0.4,0.6-0.4,1.4,0,2l1.4,1.9L6,13.7c0.1,0.6,0.6,1.2,1.2,1.3
	l-4.4,7.3c-0.1,0.1-0.1,0.3,0,0.4s0.3,0.1,0.4,0.1l3.6-2.2c0,0.4,0.1,1,0.2,1.6c0.1,0.5,0.1,1.1,0.2,1.5c0,0.2,0,0.4,0.1,0.5
	c0,0.2,0.1,0.5,0.4,0.5l0,0c0.1,0,0.2,0,0.2-0.1C8,24.5,8,24.5,8,24.4c0.1-0.4,1.9-4.5,3.3-7.9l0.5,0.4c0.4,0.2,0.8,0.3,1.2,0.3
	c-0.2-0.3-0.5-0.6-0.7-1c-0.4-0.6-0.7-1.3-0.8-2.1c0,0,0,0,0-0.1c-2.7-0.5-4.7-2.8-4.7-5.6c0-1.8,0.9-3.5,2.2-4.5c0-0.2,0-0.4,0-0.6
	 M22.7,22.5l-4.8-7.6H18c0.1,0,0.3-0.1,0.4-0.1c0.5-0.2,0.9-0.7,1-1.3l0.3-2.4l1.4-2c0.4-0.6,0.4-1.4,0-2l-1.4-1.9l-0.4-2.3
	c-0.1-0.7-0.7-1.3-1.4-1.4l-2.4-0.3l-1.6-1.1c-1,0.8-2.2,1.4-2.9,2.5c-0.1,0.1-0.2,0.2-0.2,0.4c0.6-0.2,1.3-0.4,2-0.4
	c3.2,0,5.8,2.6,5.8,5.7c0,3-2.4,5.5-5.4,5.7c0.2,1.1,1.1,1.8,1.6,2.9c0.2,0.4,0.3,0.9,0.3,1.4c1.3,3,2.6,6,2.7,6.4
	c0,0.1,0,0.1,0.1,0.2S18,25,18.1,25l0,0c0.3,0,0.3-0.3,0.4-0.5c0-0.1,0-0.3,0.1-0.5c0-0.4,0.1-0.9,0.1-1.5c0.1-0.6,0.1-1.2,0.1-1.6
	l3.6,2.1c0.1,0.1,0.3,0.1,0.4-0.1C22.8,22.8,22.8,22.7,22.7,22.5z"/>
</svg>
