<?xml version="1.0" encoding="utf-8"?>
<!-- Generator: Adobe Illustrator 17.0.0, SVG Export Plug-In . SVG Version: 6.00 Build 0)  -->
<!DOCTYPE svg PUBLIC "-//W3C//DTD SVG 1.0//EN" "http://www.w3.org/TR/2001/REC-SVG-20010904/DTD/svg10.dtd">
<svg version="1.0" id="Layer_1" xmlns="http://www.w3.org/2000/svg" xmlns:xlink="http://www.w3.org/1999/xlink" x="0px" y="0px"
	 width="25px" height="25px" viewBox="0 0 25 25" style="enable-background:new 0 0 25 25;" xml:space="preserve">
<g>
	<path style="fill:#FFFFFF;" d="M20.7,9.2c1.8,0,3.3-1.5,3.3-3.3s-1.5-3.3-3.3-3.3s-3.3,1.5-3.3,3.3C17.4,7.7,18.9,9.2,20.7,9.2z
		 M23.3,9.7H18c-0.8,0-1.4,0.6-1.6,1.4l-3.1,6.4h-0.1H12h-0.1l-3.1-6.4c-0.2-0.8-0.9-1.4-1.6-1.4H1.8c-0.9,0-1.7,0.9-1.7,1.9v10.1
		h8.7V16l1.9,3.5c0.2,0.6,0.7,1,1.3,1h1.2c0.6,0,1.1-0.4,1.3-1l1.9-3.5v5.8H25V11.6C25,10.6,24.2,9.7,23.3,9.7z M4.4,9.2
		c1.8,0,3.3-1.5,3.3-3.3S6.2,2.6,4.4,2.6S1.1,4.1,1.1,5.9C1.2,7.7,2.6,9.2,4.4,9.2z"/>
</g>
</svg>
