<?xml version="1.0" encoding="utf-8"?>
<!-- Generator: Adobe Illustrator 17.0.0, SVG Export Plug-In . SVG Version: 6.00 Build 0)  -->
<!DOCTYPE svg PUBLIC "-//W3C//DTD SVG 1.0//EN" "http://www.w3.org/TR/2001/REC-SVG-20010904/DTD/svg10.dtd">
<svg version="1.0" id="Layer_1" xmlns="http://www.w3.org/2000/svg" xmlns:xlink="http://www.w3.org/1999/xlink" x="0px" y="0px"
	 width="25px" height="25px" viewBox="0 0 25 25" style="enable-background:new 0 0 25 25;" xml:space="preserve">
<g>
	<path d="M22.9,2.5h-9.2c0.1-0.2,0.2-0.4,0.2-0.6c0-0.7-0.6-1.4-1.4-1.4c-0.7,0-1.4,0.6-1.4,1.4c0,0.2,0.1,0.4,0.2,0.6H2.1
		c-0.7,0-1.2,0.6-1.2,1.2v13.7c0,0.7,0.6,1.2,1.2,1.2h7.5l-1.5,5.2c-0.1,0.4,0.1,0.7,0.5,0.8l0.6,0.1c0.4,0.1,0.7-0.2,0.8-0.5
		l1.6-5.5h1.7l1.6,5.5c0.1,0.4,0.5,0.6,0.9,0.5l0.6-0.1c0.4-0.1,0.6-0.4,0.5-0.8l-1.5-5.2h7.5c0.7,0,1.2-0.6,1.2-1.2V3.8
		C24.2,3.1,23.6,2.5,22.9,2.5z M21.8,16.3H3.2V4.7h18.6C21.8,4.7,21.8,16.3,21.8,16.3z M5.4,14.4c0.5,0,1-0.4,1-1
		c0-0.1,0-0.2-0.1-0.3c1.2-1,3.4-2.7,4.4-3.5c0.2,0.1,0.3,0.2,0.5,0.2s0.3-0.1,0.5-0.1c0.6,0.5,1.7,1.5,2.5,2.1c0,0.1,0,0.1,0,0.2
		c0,0.5,0.4,1,1,1c0.5,0,1-0.4,1-1c0-0.1,0-0.2-0.1-0.3l2.5-2.2c0.1,0.1,0.3,0.1,0.4,0.1c0.5,0,1-0.4,1-1c0-0.5-0.4-1-1-1
		c-0.5,0-1,0.4-1,1c0,0.1,0,0.2,0.1,0.4c-0.7,0.6-1.8,1.6-2.4,2.2c-0.2-0.1-0.3-0.2-0.5-0.2s-0.4,0.1-0.6,0.2
		c-0.6-0.5-1.7-1.4-2.4-2c0-0.1,0.1-0.2,0.1-0.3c0-0.5-0.4-1-1-1c-0.5,0-1,0.4-1,1c0,0.1,0,0.2,0.1,0.3L6,12.6
		c-0.2-0.1-0.3-0.2-0.5-0.2c-0.5,0-1,0.4-1,1C4.4,13.9,4.9,14.4,5.4,14.4z"/>
</g>
</svg>
