<?xml version="1.0" encoding="utf-8"?>
<!-- Generator: Adobe Illustrator 17.0.0, SVG Export Plug-In . SVG Version: 6.00 Build 0)  -->
<!DOCTYPE svg PUBLIC "-//W3C//DTD SVG 1.0//EN" "http://www.w3.org/TR/2001/REC-SVG-20010904/DTD/svg10.dtd">
<svg version="1.0" id="Layer_1" xmlns="http://www.w3.org/2000/svg" xmlns:xlink="http://www.w3.org/1999/xlink" x="0px" y="0px"
	 width="25px" height="25px" viewBox="0 0 25 25" style="enable-background:new 0 0 25 25;" xml:space="preserve">
<path d="M24.4,4.8l-2.7-3.4c-0.3-0.3-0.6-0.5-1.1-0.5h-14c-0.4,0-0.8,0.2-1.1,0.5L2.9,4.8c-0.3,0.4-0.5,1-0.5,1.5v2.5
	c0.2-0.3,0.5-0.6,0.9-0.7c0-0.3,0.1-0.6,0.3-0.8c0.3-0.4,0.7-0.7,1.2-0.9c0.2,0,0.3-0.1,0.5-0.1c0.6,0,1.2,0.3,1.6,0.8
	c0.1,0,0.2,0,0.3,0c0.3,0,0.6,0.1,0.9,0.2L9.5,7C9.7,7,9.9,6.9,10,6.9c1,0,1.9,0.7,2.2,1.7l2.9,11.2c0.2,0.6,0.1,1.2-0.2,1.7
	s-0.8,0.9-1.4,1L12.2,23h11c0.9,0,1.7-0.8,1.7-1.7v-15C24.9,5.8,24.7,5.2,24.4,4.8z M3.8,4.8l0.9-1.1h6.1l0.6-1H5.5l0.7-0.8
	c0.1-0.2,0.3-0.3,0.5-0.3h14c0.2,0,0.4,0.1,0.5,0.3l0.7,0.8h-6l0.3,1h6.5l0.9,1.1H3.8z M4.1,8.9L3.7,9C3.3,9.1,3.1,9.5,3.2,9.9l0,0
	c0.1,0.4,0.5,0.6,0.9,0.5l3.2-0.8c0.4-0.1,0.6-0.5,0.5-0.9l0,0C7.7,8.3,7.3,8.1,6.9,8.2L6.5,8.3C6.3,8.3,6.1,8.2,6.1,8l0,0
	C5.9,7.5,5.5,7.3,5,7.4l0,0C4.5,7.5,4.2,8,4.4,8.4l0,0C4.4,8.7,4.3,8.9,4.1,8.9z M5.1,7.9C5.3,7.8,5.5,8,5.6,8.2S5.5,8.6,5.3,8.7
	c-0.2,0-0.4-0.2-0.5-0.4C4.8,8.1,4.9,7.9,5.1,7.9z M9.8,19.4c0,0.1,0,0.3-0.2,0.3L5,21c-0.1,0-0.3,0-0.3-0.2l-0.1-0.2
	c0-0.1,0-0.3,0.2-0.3L9.5,19c0.1,0,0.3,0,0.3,0.2V19.4z M10.4,14.6l0.1,0.2c0,0.1,0,0.3-0.2,0.3l-6.4,1.7c-0.1,0-0.3,0-0.3-0.2
	l-0.1-0.2c0-0.1,0-0.3,0.2-0.3l6.4-1.7C10.2,14.4,10.4,14.5,10.4,14.6z M9.7,12.9l-6.4,1.7c-0.1,0-0.3,0-0.3-0.2l0-0.2
	c0-0.1,0-0.3,0.2-0.3l6.4-1.7c0.1,0,0.3,0,0.3,0.2l0.1,0.2C9.9,12.8,9.9,12.9,9.7,12.9z M9.6,17.4l-5.2,1.3c-0.1,0-0.3,0-0.3-0.2
	L4,18.3C4,18.2,4,18,4.2,18l5.2-1.3c0.1,0,0.3,0,0.3,0.2l0.1,0.2C9.8,17.2,9.7,17.4,9.6,17.4z M14.2,20.1L11.3,8.9
	C11.1,8.2,10.4,7.8,9.7,8L8.2,8.4c0,0.1,0.1,0.1,0.1,0.2c0.2,0.7-0.2,1.4-0.9,1.5L4.3,11c-0.6,0.2-1.3-0.2-1.6-0.8
	c0-0.1-0.1-0.2-0.1-0.4l-1.5,0.4c-0.7,0.2-1.1,0.9-0.9,1.5l3,11.3c0.2,0.7,0.9,1.1,1.5,0.9l8.6-2.2C14,21.5,14.4,20.8,14.2,20.1z
	 M4.4,22.7l-2.6-9.8l8.6-2.2l2.6,9.8L4.4,22.7z"/>
</svg>
